<svg xmlns="http://www.w3.org/2000/svg" viewBox="0 0 512 512" style="height: 512px; width: 512px;"><path d="M0 0h512v512H0z" fill="url(#pattern)" fill-opacity="1"></path><svg><defs><filter id="b" x="-.024" width="1.048" y="-.024" height="1.048" color-interpolation-filters="sRGB"><feGaussianBlur stdDeviation="4.823"></feGaussianBlur></filter><filter id="a" x="-.012" width="1.024" y="-.012" height="1.024" color-interpolation-filters="sRGB"><feGaussianBlur stdDeviation="2.55"></feGaussianBlur></filter><filter id="c" x="-.112" width="1.225" y="-.077" height="1.153" color-interpolation-filters="sRGB"><feGaussianBlur stdDeviation="15.63"></feGaussianBlur></filter><filter id="e" x="-.237" width="1.475" y="-.249" height="1.497" color-interpolation-filters="sRGB"><feGaussianBlur stdDeviation="18.7"></feGaussianBlur></filter><filter id="d" x="-.213" width="1.426" y="-.151" height="1.303" color-interpolation-filters="sRGB"><feGaussianBlur stdDeviation="18.7"></feGaussianBlur></filter></defs><path d="M196.6 1.207c-2.5 11.323-4.8 22.703-10.2 33.383-7-10.68-12.6-20.91-16.7-31.988L2.494 4.338C13 104.9 10.86 175.3 1.979 278.3L15.4 295.5l-9.494 6.3L2.6 462.7l1.019 45.9 112.681 3.1c3.6-16.1 6.5-32.5 13.2-47.3 4.5 14.4 5.7 29.4 7 44.4l160 .3c.8-6.1.7-8.1 2.3-14.4 5.1 4.5 7.8 9.5 10.6 14.5.8-10.1 3.9-19.8 7-29.5 4.8 9.2 6.7 19.4 8.8 29.5l185.2.4-4.6-78.2-21.4-8.2 21.3-4.9 5.8-395.47c-7-6.73-13.3-13.744-18-21.465l-15.1.114-2.1 20.321-1.4 47.23.8 84.87-8.6-97.14c9.3-16.86 2.2-39.69 5.7-55.239-92.1 1.696-184.1.685-276.2-.314z" overflow="visible" color="#000" fill="#ebc893" fill-rule="evenodd" stroke="#e0aa58" enable-background="accumulate"></path><path d="M196.6 1.203c-2.5 11.327-4.8 22.707-10.2 33.387-7-10.68-12.6-20.91-16.7-31.99L2.494 4.336C13 104.9 10.86 175.3 1.979 278.3L15.4 295.5l-9.494 6.3L2.6 462.7l1.019 45.9 112.681 3.1c.5-2.1-7.9-2.3-7.4-4.5L5.244 504.5l-.914-47.3 4.63-153.7 12.42-9-13.093-16.8C16.95 177.3 16.36 104 6.113 5.992l162.687.164c4 10.804 10.3 24.254 17.1 34.664 5.3-10.41 9.5-25.97 12-37.02 89.8.974 173.8 3.521 263.6 1.867 4.6 1.226 10.6.431 11.3-4.149-92.1 1.696-184.1.684-276.2-.315zm296.9.158l-15.1.116-.6 6.277 13.5-2.557c4.6 7.533 9.7 12.383 16.6 18.943l-4.6 389.06-19.9 9.9 4.1-.6 18.2-4.2 5.8-395.47c-7-6.73-13.3-13.748-18-21.469zm9.6 435.739l3.5 69.7-177.7.1c.4 2.1-4.1.2-3.7 2.3l185.2.4-4.6-78.2zm-370 25.1c-1 2.2-2.9.4-3.7 2.6 4.2 14 5.8 29.5 7.1 44l158 .3c1.9-5 .8-9.7 4.3-14.4 5.1 4.5 7.8 9.5 10.6 14.5.8-10.1 3.9-19.8 7-29.5 1.8 3.4 3.2 7 4.3 10.6-1.4-5.6-2.4-8.3-5.1-13.4-3 9.4-6.7 16.2-7.5 26-2.7-4.9-5.4-9.7-10.4-14.1-3.4 4.6-6.2 9.1-8 14l-147.6 3.4c-3.4-14.6-7.1-30.3-9-44z" overflow="visible" color="#000" opacity=".527" fill="#c87137" fill-rule="evenodd" filter="url(#a)" enable-background="accumulate"></path><path d="M200.1 16.1c-2.3 10.67-10.5 21.38-15.6 31.44-6.6-10.06-13.9-19.69-17.7-30.12L17.34 19.05C24.61 113.6 7.605 179.3 16.85 277l18.26 20.1L10.34 309l7.1 141.6.96 43.3 90.2 3.4c3.4-15.2 15-35.6 21.3-49.6 4.3 13.6 15.4 36.7 16.6 50.9l45.1.8 13.8-18.7 14.4 22.2 68.7-8.6c1.8-4.7 4.5-9.1 7.8-13.5 4.8 4.2 7.4 8.9 10 13.6.8-9.5 7.7-19.6 10.6-28.7 4.5 8.6 19.9 28.9 33.1 33.9l114.6 5.6 22.3-14.7 19.4 14.7-14.5-67.6-34.6-14.2 37.5-15.1 2.1-96.9-14.5-21.9 15.2-13.4 5.1-239.63c-5.2-21.09-11.8-24.89-16.9-20.22l-4.2 2.11 2 19.14.7 44.47-7.1 124.23-18.3-137.78c8.8-15.88-3.9-35.38-.6-50.02-67.1 1.24-140.4-13.332-202.8-3.28-14 2.25-23.7 21.31-36.9 24.48-4.3 1.03-13.9-23.45-18.4-23.5z" overflow="visible" enable-background="accumulate" filter="url(#b)" fill-rule="evenodd" fill="#f6e7d0" color="#000"></path><path d="M354 27.39l-70.3 96.91 46.4 97.6-56.2 43.6 33 74.4-30.2 63.2 69.8 48.8 31.6 29.5 31.6-13.3L365.9 335l55.5-36.5 2.1-146.1-56.9-101.83zM116.6 55.48L89.9 123.6s33.7 65.3 35.8 68.8c2.1 3.6-7 118-7 118l42.8 73.8s9.9-82.9 7.1-83.6c-2.8-.7-29.5-42.1-29.5-42.1l23.8-84.3-36.5-37.2z" color="#000" overflow="visible" fill="#f2dbb9" fill-rule="evenodd" filter="url(#c)" enable-background="accumulate"></path><path d="M39.33 172.1l-5.62 108.1L74.45 328 42.84 464.9l96.96-39.3 30.2 42.9 74.4-38.7-80.8-169.9-60.4-16.9z" color="#000" overflow="visible" fill="#eed3a4" fill-rule="evenodd" enable-background="accumulate" filter="url(#d)"></path><path d="M266.9 66.72L324.5 191 434 221.2l21.8-111.6-41.4-68.86z" color="#000" overflow="visible" fill="#eed3a4" fill-rule="evenodd" enable-background="accumulate" filter="url(#e)"></path></svg><g class="" transform="translate(0,0)" style="touch-action: none;"><path d="M256 41c-47 0-84.6 7.94-110.1 29.83C120.3 92.72 105 129.5 105 192v13.2l12.6 16.8 22.9-55.9 8.7 18.3s2.7 5.5 6.3 14.6H208v18h-45.8c3 8.9 6 19.1 8.6 30H240v18h-65.7c2.7 16.8 3.5 34.3.3 50.7-3.4 16.5-11.3 32.2-25.7 43 11 15.8 19.6 32 26 48.3h3.8c15.5-18.4 38-31.8 56.9-42.4l10-5.5 3.1 11c3.8 13.7 6.1 25.9 6.9 36.9h38.7c0-3.6.4-7.3 1.1-10.9 1.3-6.3 3.6-12.6 6.8-18.9-7.4-1.9-14.4-4.3-20.7-7.4-13.2-6.5-24.4-16.5-26.2-29.5-1.7-13 7-22.4 18.6-28.2 5.1-2.6 11-4.6 17.6-6-4.3-5.8-7.8-11.6-10.4-17.2-3-6.4-5-12.8-5.3-19-.2-6.2 1.3-12.7 5.7-17.7 4.5-4.9 10.9-7.1 17-7.5 6.2-.3 12.7 1 19.4 3.3 5.8 2 11.9 4.8 18 8.4.6-7.3 2.1-14 4.3-19.8 3.3-8.8 8.7-16.3 16.4-19.6H240v-18h128v16.3c12.4 1.2 22.8 11 30.4 22.9 3.3 5.3 6.2 11.2 8.6 17.6V192c0-62.5-15.3-99.28-40.9-121.17C340.6 48.94 303 41 256 41zM144 151h144v18H144v-18zm176 0h48v18h-48v-18zM82.29 204.9l10.96 71.4L39 229.7l29.42 56.6-52.19-8c7.77 11.2 19.04 26.1 32.84 40 12.82 12.9 27.49 24.5 41.9 30.4 14.43 5.9 27.83 6.7 41.73-1 14.1-7.8 21.1-19.9 24.2-35.5 3.1-15.6 1.8-34.4-1.7-52.3-3.6-18.3-9.3-35.5-14-48l-19 46.3-39.91-53.3zm286.41 30.2c-3.3 0-7.9 3.1-11.2 12-3.4 8.9-4.8 22.3-2.8 37.4.5 3.5 1.1 6.9 1.8 10.2 12.4-5.3 26.9-5.1 40.3.1-.1-2.9-.4-6-.8-9.1-2-15.1-7-28.7-12.8-37.9-5.7-9.1-11.2-12.6-14.5-12.7zm-69.2 27.6c-2.9.2-4 .9-4.6 1.6-.6.7-1.2 1.8-1.1 4.8.2 2.9 1.3 7.2 3.6 12.2 3.1 6.7 8.4 14.6 15.3 22.5 2-.1 4-.1 6 0 7.5.2 14.8 1.1 21.8 2.5.1-.2.3-.3.4-.5.3-.3.6-.6.8-.9-2.3-7.2-4.1-14.9-5.1-22.9-.2-1.3-.3-2.6-.5-3.9-8.5-6.1-16.9-10.6-24-13.1-4.6-1.6-8.5-2.2-11.4-2.3h-1.2zm140.9 4c-2.6 0-5.6.6-9 1.6-5.6 1.8-12 5.2-18.2 10.1.3 1.9.6 3.8.9 5.8 1 7.5 1.3 14.7 1 21.5.5.4 1 .9 1.5 1.3.4.4.8.8 1.3 1.2 6.1-.8 12.6-1.2 19.5-1 2.7.1 5.3.2 7.9.5 4.2-6.8 7-13.5 8.2-19.4 1.9-9.3.2-15.4-3.3-18.6-2.2-1.9-5.5-3.1-9.8-3zm-64.6 42.1c-8.5.1-16.2 3.2-21.5 9.1-11.3 12.5-9 34.7 7.7 49.7 16.6 15 39 15 50.2 2.5 11.3-12.5 9-34.8-7.6-49.8-8.8-8-19.3-11.7-28.8-11.5zm-57.5 12.9c-14 0-26.2 2.7-34.2 6.7-8.5 4.2-11.1 9.2-10.7 12.4.5 3.3 4.4 8.5 14.1 13.2 9.7 4.8 23.8 8.4 39 8.8 3.2.1 6.3 0 9.3-.2-6.5-12.8-8.3-27.2-4.4-40-3.3-.4-6.8-.7-10.3-.8-1 0-1.9 0-2.8-.1zm118.7 3.4c-2.1 0-4.2.1-6.3.2 6.6 12.8 8.3 27.3 4.3 40.1 3.4.4 6.8.7 10.3.8 15.2.5 28.4-2.3 36.9-6.6 8.5-4.2 11.2-9.2 10.7-12.5-.4-3.2-4.4-8.4-14.1-13.1-9.7-4.8-23.8-8.4-39-8.8-.9 0-1.9 0-2.8-.1zm-303.8 42.2c-9.4 3.5-18.9 4.4-28.2 3.4V407h50.7c-5.8-13.4-13.2-26.6-22.5-39.7zm215.4 12.5c-6.1.8-12.8 1.2-19.7 1-2.6-.1-5.2-.3-7.7-.5-4.2 6.8-6.9 13.5-8.2 19.4-1.9 9.2-.1 15.3 3.4 18.5 3.5 3.1 9.7 4.2 18.8 1.4 5.7-1.8 12-5.3 18.3-10.1-.5-2.5-1-5.1-1.3-7.7-.9-6.9-1.2-13.5-1-19.7-.4-.4-.9-.7-1.3-1.1-.4-.4-.9-.8-1.3-1.2zm77.3 1.9c-.1.2-.2.3-.3.4-.2.2-.4.4-.5.6 2.1 6.7 3.8 13.8 4.7 21.3.3 2 .5 4 .6 5.9 8.6 6.2 17 10.6 24 13 5.3 1.8 9.7 2.5 12.6 2.3 3-.1 4.1-.9 4.7-1.5.6-.7 1.2-1.9 1-4.8-.1-3-1.2-7.3-3.6-12.3-3.1-6.7-8.3-14.6-15.3-22.4-2 .1-4 .1-6.1 0-7.5-.2-14.8-1.1-21.8-2.5zm-191.7 4.6C216.3 397 197.9 410 188 424.5c-5.9 8.7-8.9 17.5-8.2 27.3.6 8.3 4.2 17.9 12.2 28.8 19.6-11.8 33.1-22.8 40-36.5 6.7-13.5 8.3-31 2.2-57.8zm135.3 6.8c.1 3 .4 6.1.8 9.2 2 15 7 28.7 12.8 37.9 5.7 9.1 11.2 12.5 14.5 12.6 3.3.1 8-3 11.3-11.9 3.4-8.9 4.8-22.4 2.8-37.4-.5-3.5-1.1-6.9-1.8-10.2-12.4 5.2-27 5-40.4-.2zM41 425v62h131.8c0-.8-.1-1.7-.1-2.5-6.6-10.8-10.1-21.2-10.9-31.4-.5-7.5.5-14.7 2.7-21.4-.6-2.2-1.3-4.5-2-6.7H41zm214.6 0c-1 10-3.4 19-7.5 27.1-7.1 14.1-18.3 25-32.6 34.9h108.7c-1.3-17.7 4.9-34.2 14.7-49.7-12.3 3.4-25.3 2.5-34.5-5.8-2.2-1.9-3.9-4.1-5.4-6.5h-43.4zm174.7 6.3c-.7 6.7-2.1 12.8-4.1 18.1-4.6 12.1-13.1 21.8-26.2 21.4-13.1-.4-24.2-10.6-32-23.1-2.3-3.6-4.4-7.6-6.3-11.7-13.5 17.6-21.2 34.4-19.4 51H471v-44.2c-1 .2-2 .3-3 .4-6.2.3-12.7-1-19.4-3.2-5.9-2-12.1-5-18.3-8.7z" fill="#000000" fill-opacity="1"></path></g></svg>